# xmcd CD database file
#
# Track frame offsets:
#	187
#	83950
#	127880
#	142290
#	151282
#	165085
#	177707
#	201015
#	218702
#	229162
#
# Disc length: 3154 seconds
#
# Revision: 0
# Processed by: cddbd v1.5.2PL0 Copyright (c) Steve Scherf et al.
# Submitted via: CDex 1.51
#
DISCID=860c500a
DTITLE=George Gershwin - Greatest Hits - Reader's Digest 2
DYEAR=1983
DGENRE=Blues
TTITLE0=An American in Paris
TTITLE1=Cuban Overture
TTITLE2=Summertime
TTITLE3=A Woman is a sometime Thing
TTITLE4=It Ain't Necessarily So
TTITLE5=I Got Plenty o' Nuttin'
TTITLE6=Bess, You is my Woman Now
TTITLE7=My Man's  Gone Now
TTITLE8=There's  a Boat Dat's Leavin' Soon for New York
TTITLE9=Oh Lawd, I'm on My Way
EXTD=YEAR: 1983
EXTT0=
EXTT1=
EXTT2=
EXTT3=
EXTT4=
EXTT5=
EXTT6=
EXTT7=
EXTT8=
EXTT9=
PLAYORDER=
